HIERARCHY
ROOT Hip
{
   OFFSET 0.00000 0.00000 0.00000
   CHANNELS 6 Xposition Yposition Zposition Zrotation Yrotation Xrotation
   JOINT Head
   {
      OFFSET 0.000000 27.319400 0.000000
      CHANNELS 3 Zrotation Yrotation Xrotation
      End Site
      {
         OFFSET 0.000000 16.277100 0.000000
      }
      JOINT LeftShoulder
      {
         OFFSET 9.032789 0.000000 0.000000
         CHANNELS 3 Zrotation Yrotation Xrotation
         JOINT LeftHand
         {
            OFFSET 0.000000 -13.199699 0.000000
            CHANNELS 3 Zrotation Yrotation Xrotation
            End Site
            {
               OFFSET 0.000000 -14.456650 0.000000
            }
         }
      }
      JOINT RightShoulder
      {
         OFFSET -9.626880 0.000000 0.000000
         CHANNELS 3 Zrotation Yrotation Xrotation
         JOINT RghtHand
         {
            OFFSET 0.000000 -15.815950 0.000000
            CHANNELS 3 Zrotation Yrotation Xrotation
            End Site
            {
               OFFSET 0.000000 -10.833920 0.000000
            }
         }
      }
   }
   JOINT LeftHip
   {
      OFFSET 9.557995 0.000000 0.000000
      CHANNELS 3 Zrotation Yrotation Xrotation
      JOINT LeftKnee
      {
         OFFSET 0.000000 -26.942198 0.000000
         CHANNELS 3 Zrotation Yrotation Xrotation
         JOINT LeftFoot
         {
            OFFSET 0.000000 -20.542450 0.000000
            CHANNELS 3 Zrotation Yrotation Xrotation
            End Site
            {
               OFFSET 0.000000 0.000000 13.387151
            }
         }
      }
   }
   JOINT RightHip
   {
      OFFSET -9.557995 0.000000 0.000000
      CHANNELS 3 Zrotation Yrotation Xrotation
      JOINT RightKnee
      {
         OFFSET 0.000000 -24.383449 0.000000
         CHANNELS 3 Zrotation Yrotation Xrotation
         JOINT RightFoot
         {
            OFFSET 0.000000 -20.911600 0.000000
            CHANNELS 3 Zrotation Yrotation Xrotation
            End Site
            {
               OFFSET 0.000000 0.000000 13.446950
            }
         }
      }
   }
}
MOTION
Frames: 12
Frame Time: 0.016670
8.099354 41.802468 -15.488072 151.053049 91.187793 155.867048 -0.609772 24.723439 -28.454215 6.616341 -12.513613 19.106505 -7.322982 -0.813846 19.799914 -29.859948 -14.013885 42.354215 -27.413646 5.781537 44.045988 -18.508245 -59.946870 3.614804 41.242120 -54.069085 10.939344 -14.260448 -51.773319 -34.761855 -4.247196 -53.342193 3.176340 19.291328 -40.695910 -0.030298 -13.008721 -40.449630 -23.872751
8.073628 41.770439 -15.476682 185.493758 65.586591 190.496107 2.826553 -0.272026 -28.990946 -1.190763 -20.978183 22.134652 -9.847595 -2.466628 18.047119 -37.675245 -16.475472 43.660888 -31.184369 6.264288 39.710607 -7.903783 -69.740883 -5.062020 40.255851 -61.277589 3.234598 -13.837559 -59.405584 -36.359566 -15.857606 -61.575371 22.603831 36.161590 -44.389218 -13.525294 -10.194021 -48.638371 -20.350084
8.056636 41.758527 -15.459294 185.367536 64.169504 190.252775 2.903109 -1.018558 -28.864980 -5.800347 -30.327208 24.162465 -12.862518 -3.694538 15.820632 -42.055223 -21.254406 44.950643 -35.427436 6.980642 36.004284 -7.562932 -70.061362 -5.249055 40.399172 -61.372583 3.021058 -13.915500 -59.587342 -36.460141 -17.553740 -61.965197 25.010307 37.928645 -43.889494 -14.409251 -10.151829 -48.852535 -20.163683
8.057584 41.752200 -15.446694 185.368179 63.505828 190.052336 2.997860 -1.117911 -28.493440 -10.753637 -38.513644 26.799145 -15.167292 -4.780866 13.526748 -46.459643 -25.670284 46.645602 -39.114253 7.137316 32.163730 -7.939357 -70.229699 -4.745416 40.378497 -61.360664 3.268764 -13.990583 -59.558355 -36.497457 -18.872250 -62.046989 26.689410 38.619758 -43.610543 -14.233584 -10.190375 -48.628389 -20.081475
8.037432 41.747569 -15.421128 185.343603 62.897095 189.862129 2.950114 -1.195903 -28.089090 -15.795518 -45.177159 30.081461 -16.807526 -5.666245 11.258885 -50.797114 -29.671359 48.689260 -42.242575 6.872288 28.432006 -8.110669 -70.386486 -4.458557 40.392554 -61.341990 3.386794 -14.075337 -59.544770 -36.547639 -20.260154 -62.218823 28.357132 39.358801 -43.323162 -14.020232 -10.239645 -48.412637 -20.030797
8.013660 41.742424 -15.389342 185.304562 62.389024 189.654068 2.939008 -1.251138 -27.670061 -20.732652 -50.149155 33.751421 -17.866202 -6.318742 9.181867 -55.010265 -33.230482 50.928302 -44.855604 6.327196 24.950888 -8.248025 -70.527864 -4.224986 40.343380 -61.353342 3.464327 -14.147145 -59.555821 -36.585970 -21.797620 -62.409057 30.095521 40.131647 -43.020223 -13.732561 -10.309323 -48.188013 -20.022780
7.985165 41.733345 -15.351022 185.284358 61.963381 189.440542 2.906339 -1.197553 -27.252926 -25.315193 -53.686523 37.430103 -18.514585 -6.732704 7.393109 -59.038004 -36.322236 53.330974 -46.880407 5.567096 21.800391 -8.431028 -70.626553 -3.973301 40.266421 -61.394446 3.611184 -14.213817 -59.579084 -36.616245 -23.492014 -62.606477 31.950406 40.986811 -42.685219 -13.412042 -10.410379 -47.952385 -20.062301
7.950485 41.724204 -15.292094 185.310313 61.556479 189.292300 2.804965 -1.090674 -26.858158 -29.434748 -56.180235 40.936606 -18.954832 -6.929579 5.898577 -62.808200 -38.957449 55.825011 -48.428148 4.706414 19.057992 -8.463711 -70.721568 -3.840623 40.205307 -61.461157 3.702344 -14.287389 -59.637127 -36.662741 -25.254245 -62.902272 33.837563 41.725400 -42.391699 -12.923000 -10.489326 -47.692913 -20.086145
7.934070 41.712121 -15.245187 185.289399 61.484373 189.060961 2.656929 -0.644964 -26.377391 -33.115165 -57.895696 44.199247 -19.227804 -6.933421 4.579130 -66.264535 -41.245808 58.250934 -49.576436 3.815017 16.670301 -9.032284 -70.823167 -3.197034 40.118021 -61.421883 4.026404 -14.384833 -59.544387 -36.694204 -27.145631 -63.079754 35.725571 42.326580 -42.052710 -12.246184 -10.621968 -47.313765 -20.182459
7.867972 41.696023 -15.137940 185.407671 61.038621 189.071917 2.612370 -0.592800 -26.089321 -36.351640 -58.996025 47.208499 -19.356910 -6.760406 3.400556 -69.382544 -43.103452 60.683847 -50.372949 2.932849 14.691156 -8.499417 -70.796195 -3.639552 40.054500 -61.656336 4.006025 -14.449335 -59.785643 -36.774415 -28.924010 -63.728773 37.655140 42.801240 -41.777822 -11.663979 -10.701748 -46.988167 -20.219303
7.828214 41.701397 -15.044493 185.477926 60.923587 188.987605 2.501630 -0.199509 -25.724376 -39.284690 -59.691899 49.983642 -19.446518 -6.432324 2.387513 -72.123546 -44.735133 63.016691 -50.848272 2.069755 12.968778 -8.524382 -70.909754 -3.492518 40.039416 -61.695664 4.115444 -14.504265 -59.813128 -36.784196 -30.759719 -64.315650 39.528982 42.946676 -41.449027 -10.880138 -10.767901 -46.493733 -20.234369
7.778000 41.691722 -14.927864 185.597960 60.799673 188.971363 2.390709 0.157493 -25.393238 -41.896845 -60.160163 52.492476 -19.640559 -5.971377 1.488619 -74.572641 -46.121061 65.174512 -51.153144 1.268537 11.581015 -8.427373 -71.086410 -3.419615 40.115265 -61.721148 4.168489 -14.587293 -59.850352 -36.831382 -32.598010 -65.003143 41.425473 42.970363 -41.150285 -10.084715 -10.883605 -46.018690 -20.324413
